STARTFONT 2.1
FONT -Fondu-ET Bembo Expert-Medium-R-Normal--13-120-75-75-P-62-MacRoman-1
SIZE 12 75 75
FONTBOUNDINGBOX 16 14 -3 -4
COMMENT Created by Fondu from a mac NFNT/FONT resource
STARTPROPERTIES 17
FOUNDRY "Fondu"
FAMILY_NAME "ET Bembo Expert"
WEIGHT_NAME "Medium"
SLANT "R"
SETWIDTH_NAME "Normal"
ADD_STYLE_NAME ""
PIXEL_SIZE 13
POINT_SIZE 120
RESOLUTION_X 75
RESOLUTION_Y 75
SPACING "P"
AVERAGE_WIDTH 62
CHARSET_REGISTRY "MacRoman"
CHARSET_ENCODING "1"
FONT_ASCENT 10
FONT_DESCENT 4
FACE_NAME "ET Bembo Expert"
ENDPROPERTIES
CHARS 162
STARTCHAR yacute
ENCODING 8
SWIDTH 500 0
DWIDTH 7 0
BBX 7 10 0 0
BITMAP
08
10
00
00
44
28
28
10
10
30
ENDCHAR
STARTCHAR thorn
ENCODING 12
SWIDTH 434 0
DWIDTH 6 0
BBX 5 6 0 0
BITMAP
40
70
48
48
70
60
ENDCHAR
STARTCHAR onehalf
ENCODING 21
SWIDTH 727 0
DWIDTH 9 0
BBX 9 10 0 -1
BITMAP
2000
2100
2200
2200
7780
0A80
0880
1100
2200
2380
ENDCHAR
STARTCHAR onequarter
ENCODING 22
SWIDTH 721 0
DWIDTH 9 0
BBX 9 10 0 -1
BITMAP
2000
2100
2200
2400
7500
0900
1700
1780
2100
4100
ENDCHAR
STARTCHAR onesuperior
ENCODING 23
SWIDTH 301 0
DWIDTH 4 0
BBX 3 5 1 4
BITMAP
40
40
40
40
E0
ENDCHAR
STARTCHAR threequarters
ENCODING 24
SWIDTH 715 0
DWIDTH 9 0
BBX 9 9 0 -1
BITMAP
7100
2200
1400
6500
0B00
1500
1780
2100
4100
ENDCHAR
STARTCHAR threesuperior
ENCODING 25
SWIDTH 349 0
DWIDTH 5 0
BBX 4 6 0 3
BITMAP
70
10
20
10
10
60
ENDCHAR
STARTCHAR twosuperior
ENCODING 26
SWIDTH 349 0
DWIDTH 5 0
BBX 4 5 0 4
BITMAP
70
10
20
40
F0
ENDCHAR
STARTCHAR minus
ENCODING 28
SWIDTH 435 0
DWIDTH 6 0
BBX 6 1 0 2
BITMAP
30
ENDCHAR
STARTCHAR space
ENCODING 32
SWIDTH 253 0
DWIDTH 3 0
BBX 0 0 0 -4
BITMAP
ENDCHAR
STARTCHAR exclam
ENCODING 33
SWIDTH 189 0
DWIDTH 2 0
BBX 1 7 1 0
BITMAP
80
80
80
80
80
00
80
ENDCHAR
STARTCHAR dollar
ENCODING 36
SWIDTH 384 0
DWIDTH 5 0
BBX 5 9 0 -2
BITMAP
50
F8
D0
70
58
58
D8
70
50
ENDCHAR
STARTCHAR percent
ENCODING 37
SWIDTH 487 0
DWIDTH 6 0
BBX 6 7 0 -1
BITMAP
48
B0
B0
60
3C
54
48
ENDCHAR
STARTCHAR ampersand
ENCODING 38
SWIDTH 570 0
DWIDTH 7 0
BBX 7 6 0 0
BITMAP
70
50
24
D8
88
FE
ENDCHAR
STARTCHAR quotesingle
ENCODING 39
SWIDTH 272 0
DWIDTH 4 0
BBX 3 3 0 6
BITMAP
40
20
40
ENDCHAR
STARTCHAR parenleft
ENCODING 40
SWIDTH 298 0
DWIDTH 4 0
BBX 3 9 1 -2
BITMAP
40
80
80
80
80
80
80
40
40
ENDCHAR
STARTCHAR parenright
ENCODING 41
SWIDTH 284 0
DWIDTH 4 0
BBX 4 10 -1 -3
BITMAP
20
10
10
10
10
10
10
20
40
40
ENDCHAR
STARTCHAR asterisk
ENCODING 42
SWIDTH 484 0
DWIDTH 6 0
BBX 5 4 1 4
BITMAP
20
D0
60
20
ENDCHAR
STARTCHAR comma
ENCODING 44
SWIDTH 251 0
DWIDTH 3 0
BBX 2 3 1 -2
BITMAP
C0
40
80
ENDCHAR
STARTCHAR hyphen
ENCODING 45
SWIDTH 435 0
DWIDTH 6 0
BBX 6 1 0 3
BITMAP
78
ENDCHAR
STARTCHAR period
ENCODING 46
SWIDTH 261 0
DWIDTH 3 0
BBX 2 2 1 0
BITMAP
C0
C0
ENDCHAR
STARTCHAR slash
ENCODING 47
SWIDTH 100 0
DWIDTH 1 0
BBX 7 10 -3 -1
BITMAP
02
04
04
08
10
10
20
40
40
80
ENDCHAR
STARTCHAR zero
ENCODING 48
SWIDTH 505 0
DWIDTH 7 0
BBX 5 6 1 0
BITMAP
70
88
88
88
88
70
ENDCHAR
STARTCHAR one
ENCODING 49
SWIDTH 430 0
DWIDTH 6 0
BBX 5 6 1 0
BITMAP
20
60
20
20
20
70
ENDCHAR
STARTCHAR two
ENCODING 50
SWIDTH 481 0
DWIDTH 6 0
BBX 6 6 0 0
BITMAP
30
08
08
10
20
78
ENDCHAR
STARTCHAR three
ENCODING 51
SWIDTH 444 0
DWIDTH 6 0
BBX 4 9 0 -3
BITMAP
70
10
10
20
70
10
10
10
60
ENDCHAR
STARTCHAR four
ENCODING 52
SWIDTH 481 0
DWIDTH 6 0
BBX 6 8 0 -2
BITMAP
10
10
30
50
90
FC
10
10
ENDCHAR
STARTCHAR five
ENCODING 53
SWIDTH 444 0
DWIDTH 6 0
BBX 5 8 0 -2
BITMAP
18
60
20
10
08
08
08
70
ENDCHAR
STARTCHAR six
ENCODING 54
SWIDTH 484 0
DWIDTH 6 0
BBX 6 8 0 0
BITMAP
0C
30
60
78
8C
84
84
48
ENDCHAR
STARTCHAR seven
ENCODING 55
SWIDTH 471 0
DWIDTH 6 0
BBX 6 8 0 -2
BITMAP
7C
08
08
10
10
10
20
20
ENDCHAR
STARTCHAR eight
ENCODING 56
SWIDTH 481 0
DWIDTH 6 0
BBX 4 8 1 0
BITMAP
E0
90
90
60
A0
90
90
60
ENDCHAR
STARTCHAR nine
ENCODING 57
SWIDTH 470 0
DWIDTH 6 0
BBX 6 9 0 -3
BITMAP
78
48
84
84
C4
78
18
20
40
ENDCHAR
STARTCHAR colon
ENCODING 58
SWIDTH 257 0
DWIDTH 3 0
BBX 2 5 1 0
BITMAP
80
00
00
00
80
ENDCHAR
STARTCHAR semicolon
ENCODING 59
SWIDTH 235 0
DWIDTH 3 0
BBX 2 7 0 -2
BITMAP
40
00
00
00
40
40
80
ENDCHAR
STARTCHAR less
ENCODING 60
SWIDTH 593 0
DWIDTH 8 0
BBX 7 6 0 0
BITMAP
02
0C
70
60
18
06
ENDCHAR
STARTCHAR equal
ENCODING 61
SWIDTH 593 0
DWIDTH 8 0
BBX 7 4 0 1
BITMAP
7E
00
00
7E
ENDCHAR
STARTCHAR greater
ENCODING 62
SWIDTH 593 0
DWIDTH 8 0
BBX 7 6 0 0
BITMAP
40
30
0C
06
38
40
ENDCHAR
STARTCHAR question
ENCODING 63
SWIDTH 362 0
DWIDTH 5 0
BBX 4 9 0 0
BITMAP
E0
10
10
30
60
40
00
00
60
ENDCHAR
STARTCHAR G
ENCODING 71
SWIDTH 721 0
DWIDTH 9 0
BBX 9 10 0 -1
BITMAP
2000
2100
2200
2400
7500
0900
1700
1780
2100
4100
ENDCHAR
STARTCHAR H
ENCODING 72
SWIDTH 727 0
DWIDTH 9 0
BBX 9 10 0 -1
BITMAP
2000
2100
2200
2200
7780
0A80
0880
1100
2200
2380
ENDCHAR
STARTCHAR I
ENCODING 73
SWIDTH 715 0
DWIDTH 9 0
BBX 9 9 0 -1
BITMAP
7100
2200
1400
6500
0B00
1500
1780
2100
4100
ENDCHAR
STARTCHAR J
ENCODING 74
SWIDTH 721 0
DWIDTH 9 0
BBX 9 10 0 -1
BITMAP
2000
6100
2200
2400
7780
0A80
1300
1280
2280
4380
ENDCHAR
STARTCHAR K
ENCODING 75
SWIDTH 732 0
DWIDTH 10 0
BBX 10 9 -1 -1
BITMAP
7080
2100
1200
63C0
0540
08C0
1140
1140
2080
ENDCHAR
STARTCHAR L
ENCODING 76
SWIDTH 732 0
DWIDTH 10 0
BBX 9 10 0 -1
BITMAP
7100
8200
7400
1400
6B80
1280
1180
2280
4280
0100
ENDCHAR
STARTCHAR M
ENCODING 77
SWIDTH 732 0
DWIDTH 10 0
BBX 9 9 0 0
BITMAP
F100
A200
2400
2400
0F80
1480
2380
2480
4780
ENDCHAR
STARTCHAR N
ENCODING 78
SWIDTH 727 0
DWIDTH 9 0
BBX 9 10 0 -1
BITMAP
2000
2100
2200
2200
7780
0880
0880
1080
2380
2300
ENDCHAR
STARTCHAR O
ENCODING 79
SWIDTH 742 0
DWIDTH 10 0
BBX 9 10 0 -1
BITMAP
7100
1200
1200
2400
4400
2B80
1080
1080
2380
2300
ENDCHAR
STARTCHAR V
ENCODING 86
SWIDTH 627 0
DWIDTH 8 0
BBX 11 10 -1 0
BITMAP
07C0
1A00
2200
2200
2200
7F00
2200
2200
2200
2200
ENDCHAR
STARTCHAR W
ENCODING 87
SWIDTH 522 0
DWIDTH 7 0
BBX 7 10 0 0
BITMAP
1C
24
40
40
40
FC
44
44
44
44
ENDCHAR
STARTCHAR X
ENCODING 88
SWIDTH 522 0
DWIDTH 7 0
BBX 7 9 0 0
BITMAP
1C
24
44
44
FC
44
44
44
44
ENDCHAR
STARTCHAR Y
ENCODING 89
SWIDTH 876 0
DWIDTH 11 0
BBX 11 9 0 0
BITMAP
09C0
3600
4400
4400
FFC0
4440
4440
4440
4440
ENDCHAR
STARTCHAR Z
ENCODING 90
SWIDTH 860 0
DWIDTH 11 0
BBX 11 10 0 -1
BITMAP
1FC0
6040
4440
FFC0
4440
4440
4440
4440
4440
2000
ENDCHAR
STARTCHAR bracketleft
ENCODING 91
SWIDTH 337 0
DWIDTH 4 0
BBX 3 12 1 -3
BITMAP
C0
80
80
80
80
80
80
80
80
80
80
C0
ENDCHAR
STARTCHAR backslash
ENCODING 92
SWIDTH 100 0
DWIDTH 1 0
BBX 7 9 -3 -1
BITMAP
40
40
20
10
10
08
04
04
02
ENDCHAR
STARTCHAR bracketright
ENCODING 93
SWIDTH 343 0
DWIDTH 4 0
BBX 3 12 0 -3
BITMAP
60
20
20
20
20
20
20
20
20
20
20
60
ENDCHAR
STARTCHAR grave
ENCODING 96
SWIDTH 348 0
DWIDTH 5 0
BBX 3 2 0 8
BITMAP
40
20
ENDCHAR
STARTCHAR a
ENCODING 97
SWIDTH 513 0
DWIDTH 7 0
BBX 7 6 0 0
BITMAP
10
30
28
38
48
4C
ENDCHAR
STARTCHAR b
ENCODING 98
SWIDTH 502 0
DWIDTH 7 0
BBX 6 6 0 0
BITMAP
78
24
38
24
24
78
ENDCHAR
STARTCHAR c
ENCODING 99
SWIDTH 524 0
DWIDTH 7 0
BBX 6 6 0 0
BITMAP
78
80
80
80
84
78
ENDCHAR
STARTCHAR d
ENCODING 100
SWIDTH 573 0
DWIDTH 7 0
BBX 7 6 0 0
BITMAP
F8
44
42
42
44
F8
ENDCHAR
STARTCHAR e
ENCODING 101
SWIDTH 457 0
DWIDTH 6 0
BBX 6 6 -1 0
BITMAP
7C
20
20
30
24
7C
ENDCHAR
STARTCHAR f
ENCODING 102
SWIDTH 410 0
DWIDTH 5 0
BBX 5 6 0 0
BITMAP
F0
40
70
40
40
40
ENDCHAR
STARTCHAR g
ENCODING 103
SWIDTH 546 0
DWIDTH 7 0
BBX 6 6 1 0
BITMAP
78
88
80
9C
88
78
ENDCHAR
STARTCHAR h
ENCODING 104
SWIDTH 603 0
DWIDTH 8 0
BBX 7 6 0 0
BITMAP
44
44
7C
44
44
EE
ENDCHAR
STARTCHAR i
ENCODING 105
SWIDTH 293 0
DWIDTH 4 0
BBX 3 6 0 0
BITMAP
40
40
40
40
40
40
ENDCHAR
STARTCHAR j
ENCODING 106
SWIDTH 313 0
DWIDTH 4 0
BBX 4 9 0 -3
BITMAP
60
20
20
20
20
20
20
20
C0
ENDCHAR
STARTCHAR k
ENCODING 107
SWIDTH 537 0
DWIDTH 7 0
BBX 7 6 0 0
BITMAP
48
50
60
50
58
6C
ENDCHAR
STARTCHAR l
ENCODING 108
SWIDTH 436 0
DWIDTH 6 0
BBX 6 6 0 0
BITMAP
E0
40
40
40
40
F8
ENDCHAR
STARTCHAR m
ENCODING 109
SWIDTH 693 0
DWIDTH 9 0
BBX 8 6 0 0
BITMAP
62
66
66
5A
5A
C3
ENDCHAR
STARTCHAR n
ENCODING 110
SWIDTH 579 0
DWIDTH 8 0
BBX 8 6 0 0
BITMAP
62
62
52
4A
46
E2
ENDCHAR
STARTCHAR o
ENCODING 111
SWIDTH 577 0
DWIDTH 8 0
BBX 7 6 0 0
BITMAP
38
C4
82
82
44
38
ENDCHAR
STARTCHAR p
ENCODING 112
SWIDTH 434 0
DWIDTH 6 0
BBX 5 6 0 0
BITMAP
70
48
48
70
40
60
ENDCHAR
STARTCHAR q
ENCODING 113
SWIDTH 586 0
DWIDTH 8 0
BBX 8 8 0 -2
BITMAP
38
C4
82
82
82
44
38
06
ENDCHAR
STARTCHAR r
ENCODING 114
SWIDTH 520 0
DWIDTH 7 0
BBX 7 6 0 0
BITMAP
F0
48
48
70
48
EC
ENDCHAR
STARTCHAR s
ENCODING 115
SWIDTH 384 0
DWIDTH 5 0
BBX 3 6 1 0
BITMAP
E0
A0
C0
60
20
E0
ENDCHAR
STARTCHAR t
ENCODING 116
SWIDTH 501 0
DWIDTH 7 0
BBX 7 6 0 0
BITMAP
7C
10
10
10
10
10
ENDCHAR
STARTCHAR u
ENCODING 117
SWIDTH 594 0
DWIDTH 8 0
BBX 8 6 0 0
BITMAP
67
42
42
42
42
3C
ENDCHAR
STARTCHAR v
ENCODING 118
SWIDTH 524 0
DWIDTH 7 0
BBX 7 7 0 -1
BITMAP
44
44
28
28
38
10
10
ENDCHAR
STARTCHAR w
ENCODING 119
SWIDTH 766 0
DWIDTH 10 0
BBX 10 6 0 0
BITMAP
4C80
2C80
2500
2D00
1E00
1200
ENDCHAR
STARTCHAR x
ENCODING 120
SWIDTH 568 0
DWIDTH 7 0
BBX 8 6 0 0
BITMAP
64
28
10
28
2C
46
ENDCHAR
STARTCHAR y
ENCODING 121
SWIDTH 500 0
DWIDTH 7 0
BBX 7 6 0 0
BITMAP
44
28
28
10
10
30
ENDCHAR
STARTCHAR z
ENCODING 122
SWIDTH 497 0
DWIDTH 6 0
BBX 6 6 0 0
BITMAP
7C
08
10
20
64
7C
ENDCHAR
STARTCHAR braceleft
ENCODING 123
SWIDTH 484 0
DWIDTH 6 0
BBX 5 12 1 -3
BITMAP
20
20
20
20
20
40
40
20
20
20
20
20
ENDCHAR
STARTCHAR braceright
ENCODING 125
SWIDTH 477 0
DWIDTH 6 0
BBX 5 12 1 -3
BITMAP
40
20
20
20
20
20
20
20
20
20
20
40
ENDCHAR
STARTCHAR asciitilde
ENCODING 126
SWIDTH 423 0
DWIDTH 6 0
BBX 5 2 0 2
BITMAP
68
10
ENDCHAR
STARTCHAR aacute
ENCODING 135
SWIDTH 513 0
DWIDTH 7 0
BBX 7 10 0 0
BITMAP
18
10
00
10
10
30
28
38
48
4C
ENDCHAR
STARTCHAR agrave
ENCODING 136
SWIDTH 513 0
DWIDTH 7 0
BBX 7 10 0 0
BITMAP
20
20
10
10
10
30
28
38
48
4C
ENDCHAR
STARTCHAR acircumflex
ENCODING 137
SWIDTH 513 0
DWIDTH 7 0
BBX 7 9 0 0
BITMAP
30
08
00
10
30
28
38
48
4C
ENDCHAR
STARTCHAR adieresis
ENCODING 138
SWIDTH 513 0
DWIDTH 7 0
BBX 9 9 -1 0
BITMAP
3600
3600
0000
0800
1C00
1400
1E00
2200
2300
ENDCHAR
STARTCHAR atilde
ENCODING 139
SWIDTH 513 0
DWIDTH 7 0
BBX 7 9 0 0
BITMAP
60
18
10
10
30
28
38
48
4C
ENDCHAR
STARTCHAR aring
ENCODING 140
SWIDTH 513 0
DWIDTH 7 0
BBX 7 10 0 0
BITMAP
38
28
38
00
10
28
28
38
44
44
ENDCHAR
STARTCHAR ccedilla
ENCODING 141
SWIDTH 524 0
DWIDTH 7 0
BBX 7 9 0 -3
BITMAP
3C
C2
80
80
42
3C
10
08
38
ENDCHAR
STARTCHAR eacute
ENCODING 142
SWIDTH 457 0
DWIDTH 6 0
BBX 6 10 -1 0
BITMAP
18
10
00
00
7C
20
20
30
24
7C
ENDCHAR
STARTCHAR egrave
ENCODING 143
SWIDTH 457 0
DWIDTH 6 0
BBX 5 10 0 0
BITMAP
40
20
20
00
F8
40
40
60
48
F8
ENDCHAR
STARTCHAR ecircumflex
ENCODING 144
SWIDTH 457 0
DWIDTH 6 0
BBX 6 9 -1 0
BITMAP
30
08
00
7C
20
20
30
24
7C
ENDCHAR
STARTCHAR edieresis
ENCODING 145
SWIDTH 457 0
DWIDTH 6 0
BBX 5 9 0 0
BITMAP
70
70
00
70
20
20
20
28
F0
ENDCHAR
STARTCHAR iacute
ENCODING 146
SWIDTH 293 0
DWIDTH 4 0
BBX 4 10 0 0
BITMAP
20
40
40
00
40
40
40
40
40
40
ENDCHAR
STARTCHAR igrave
ENCODING 147
SWIDTH 293 0
DWIDTH 4 0
BBX 4 10 -1 0
BITMAP
40
20
20
00
20
20
20
20
20
20
ENDCHAR
STARTCHAR icircumflex
ENCODING 148
SWIDTH 293 0
DWIDTH 4 0
BBX 5 9 -1 0
BITMAP
30
50
00
20
20
20
20
20
20
ENDCHAR
STARTCHAR idieresis
ENCODING 149
SWIDTH 293 0
DWIDTH 4 0
BBX 5 9 -1 0
BITMAP
D8
D8
00
20
20
20
20
20
20
ENDCHAR
STARTCHAR ntilde
ENCODING 150
SWIDTH 579 0
DWIDTH 8 0
BBX 8 9 0 0
BITMAP
30
0C
00
62
62
52
4A
46
E2
ENDCHAR
STARTCHAR oacute
ENCODING 151
SWIDTH 577 0
DWIDTH 8 0
BBX 7 10 0 0
BITMAP
08
10
00
00
38
C4
82
82
44
38
ENDCHAR
STARTCHAR ograve
ENCODING 152
SWIDTH 577 0
DWIDTH 8 0
BBX 7 10 0 0
BITMAP
20
30
10
00
38
C4
82
82
44
38
ENDCHAR
STARTCHAR ocircumflex
ENCODING 153
SWIDTH 577 0
DWIDTH 8 0
BBX 7 9 0 0
BITMAP
30
28
00
38
C4
82
82
44
38
ENDCHAR
STARTCHAR odieresis
ENCODING 154
SWIDTH 577 0
DWIDTH 8 0
BBX 7 9 0 0
BITMAP
3C
3C
00
38
44
82
82
44
38
ENDCHAR
STARTCHAR otilde
ENCODING 155
SWIDTH 577 0
DWIDTH 8 0
BBX 7 9 0 0
BITMAP
74
18
00
38
C4
82
82
44
38
ENDCHAR
STARTCHAR uacute
ENCODING 156
SWIDTH 594 0
DWIDTH 8 0
BBX 8 10 0 0
BITMAP
0C
08
00
00
67
42
42
42
42
3C
ENDCHAR
STARTCHAR ugrave
ENCODING 157
SWIDTH 594 0
DWIDTH 8 0
BBX 8 10 0 0
BITMAP
30
10
08
00
67
42
42
42
42
3C
ENDCHAR
STARTCHAR ucircumflex
ENCODING 158
SWIDTH 594 0
DWIDTH 8 0
BBX 8 9 0 0
BITMAP
18
24
00
67
42
42
42
42
3C
ENDCHAR
STARTCHAR udieresis
ENCODING 159
SWIDTH 594 0
DWIDTH 8 0
BBX 8 9 0 0
BITMAP
3C
3C
00
67
42
42
42
42
3C
ENDCHAR
STARTCHAR dagger
ENCODING 160
SWIDTH 422 0
DWIDTH 5 0
BBX 6 9 0 -2
BITMAP
20
20
E8
30
20
20
20
20
20
ENDCHAR
STARTCHAR degree
ENCODING 161
SWIDTH 332 0
DWIDTH 4 0
BBX 4 5 0 4
BITMAP
F0
90
F0
90
F0
ENDCHAR
STARTCHAR cent
ENCODING 162
SWIDTH 349 0
DWIDTH 5 0
BBX 5 5 0 0
BITMAP
10
30
50
78
10
ENDCHAR
STARTCHAR sterling
ENCODING 163
SWIDTH 349 0
DWIDTH 5 0
BBX 4 5 0 0
BITMAP
70
10
30
10
60
ENDCHAR
STARTCHAR section
ENCODING 164
SWIDTH 349 0
DWIDTH 5 0
BBX 4 5 1 0
BITMAP
20
C0
E0
A0
E0
ENDCHAR
STARTCHAR bullet
ENCODING 165
SWIDTH 332 0
DWIDTH 4 0
BBX 4 5 0 0
BITMAP
F0
90
70
90
F0
ENDCHAR
STARTCHAR paragraph
ENCODING 166
SWIDTH 349 0
DWIDTH 5 0
BBX 5 4 0 1
BITMAP
F0
90
20
20
ENDCHAR
STARTCHAR registered
ENCODING 168
SWIDTH 510 0
DWIDTH 7 0
BBX 6 5 0 4
BITMAP
78
B4
B4
68
30
ENDCHAR
STARTCHAR copyright
ENCODING 169
SWIDTH 528 0
DWIDTH 7 0
BBX 7 6 0 0
BITMAP
38
5C
A4
A4
7C
38
ENDCHAR
STARTCHAR trademark
ENCODING 170
SWIDTH 349 0
DWIDTH 5 0
BBX 4 5 0 0
BITMAP
70
10
10
60
70
ENDCHAR
STARTCHAR acute
ENCODING 171
SWIDTH 349 0
DWIDTH 5 0
BBX 3 2 1 8
BITMAP
40
40
ENDCHAR
STARTCHAR dieresis
ENCODING 172
SWIDTH 348 0
DWIDTH 5 0
BBX 5 2 0 7
BITMAP
D8
D8
ENDCHAR
STARTCHAR infinity
ENCODING 176
SWIDTH 349 0
DWIDTH 5 0
BBX 4 5 0 0
BITMAP
70
80
70
10
60
ENDCHAR
STARTCHAR product
ENCODING 184
SWIDTH 403 0
DWIDTH 5 0
BBX 6 8 -1 -2
BITMAP
78
78
78
38
18
18
18
10
ENDCHAR
STARTCHAR ordfeminine
ENCODING 187
SWIDTH 341 0
DWIDTH 4 0
BBX 4 5 0 0
BITMAP
E0
90
E0
20
40
ENDCHAR
STARTCHAR ordmasculine
ENCODING 188
SWIDTH 392 0
DWIDTH 5 0
BBX 3 5 1 0
BITMAP
40
A0
A0
A0
40
ENDCHAR
STARTCHAR ae
ENCODING 190
SWIDTH 673 0
DWIDTH 9 0
BBX 10 6 -1 0
BITMAP
0F80
1400
1700
3C00
2400
6F80
ENDCHAR
STARTCHAR oslash
ENCODING 191
SWIDTH 577 0
DWIDTH 8 0
BBX 7 6 0 0
BITMAP
3E
C6
9A
A2
C4
F8
ENDCHAR
STARTCHAR questiondown
ENCODING 192
SWIDTH 371 0
DWIDTH 5 0
BBX 5 9 0 -3
BITMAP
30
00
00
10
70
C0
80
80
70
ENDCHAR
STARTCHAR exclamdown
ENCODING 193
SWIDTH 303 0
DWIDTH 4 0
BBX 3 5 1 0
BITMAP
40
40
40
40
E0
ENDCHAR
STARTCHAR ellipsis
ENCODING 201
SWIDTH 1056 0
DWIDTH 14 0
BBX 12 1 1 0
BITMAP
4620
ENDCHAR
STARTCHAR oe
ENCODING 207
SWIDTH 695 0
DWIDTH 9 0
BBX 9 6 0 0
BITMAP
3F80
4400
8400
8600
4480
3F80
ENDCHAR
STARTCHAR endash
ENCODING 208
SWIDTH 480 0
DWIDTH 6 0
BBX 5 1 1 3
BITMAP
F0
ENDCHAR
STARTCHAR emdash
ENCODING 209
SWIDTH 435 0
DWIDTH 6 0
BBX 6 1 0 2
BITMAP
30
ENDCHAR
STARTCHAR quotedblleft
ENCODING 210
SWIDTH 502 0
DWIDTH 7 0
BBX 5 2 1 6
BITMAP
90
D8
ENDCHAR
STARTCHAR quotedblright
ENCODING 211
SWIDTH 501 0
DWIDTH 7 0
BBX 6 3 0 6
BITMAP
6C
24
48
ENDCHAR
STARTCHAR quoteleft
ENCODING 212
SWIDTH 272 0
DWIDTH 4 0
BBX 3 2 0 6
BITMAP
40
60
ENDCHAR
STARTCHAR quoteright
ENCODING 213
SWIDTH 272 0
DWIDTH 4 0
BBX 3 3 0 6
BITMAP
40
20
40
ENDCHAR
STARTCHAR ydieresis
ENCODING 216
SWIDTH 500 0
DWIDTH 7 0
BBX 8 9 -1 0
BITMAP
36
36
00
62
34
14
08
08
1C
ENDCHAR
STARTCHAR fraction
ENCODING 218
SWIDTH 301 0
DWIDTH 4 0
BBX 3 5 1 4
BITMAP
40
40
40
40
E0
ENDCHAR
STARTCHAR currency
ENCODING 219
SWIDTH 349 0
DWIDTH 5 0
BBX 4 5 0 4
BITMAP
70
10
20
40
F0
ENDCHAR
STARTCHAR guilsinglleft
ENCODING 220
SWIDTH 349 0
DWIDTH 5 0
BBX 4 6 0 3
BITMAP
70
10
20
10
10
60
ENDCHAR
STARTCHAR guilsinglright
ENCODING 221
SWIDTH 349 0
DWIDTH 5 0
BBX 5 6 -1 3
BITMAP
10
30
50
78
10
10
ENDCHAR
STARTCHAR fi
ENCODING 222
SWIDTH 349 0
DWIDTH 5 0
BBX 4 5 0 4
BITMAP
70
80
70
10
60
ENDCHAR
STARTCHAR fl
ENCODING 223
SWIDTH 349 0
DWIDTH 5 0
BBX 4 5 1 4
BITMAP
40
80
E0
A0
60
ENDCHAR
STARTCHAR daggerdbl
ENCODING 224
SWIDTH 349 0
DWIDTH 5 0
BBX 5 5 0 3
BITMAP
F0
10
20
20
20
ENDCHAR
STARTCHAR periodcentered
ENCODING 225
SWIDTH 349 0
DWIDTH 5 0
BBX 4 6 0 3
BITMAP
60
A0
90
60
20
40
ENDCHAR
STARTCHAR quotesinglbase
ENCODING 226
SWIDTH 396 0
DWIDTH 5 0
BBX 3 6 1 3
BITMAP
40
A0
A0
A0
A0
40
ENDCHAR
STARTCHAR quotedblbase
ENCODING 227
SWIDTH 418 0
DWIDTH 5 0
BBX 6 3 0 -2
BITMAP
58
48
90
ENDCHAR
STARTCHAR perthousand
ENCODING 228
SWIDTH 770 0
DWIDTH 10 0
BBX 10 7 0 -1
BITMAP
6000
A800
7000
1000
3FC0
5680
4900
ENDCHAR
STARTCHAR Aacute
ENCODING 231
SWIDTH 349 0
DWIDTH 5 0
BBX 4 5 0 4
BITMAP
70
80
70
10
60
ENDCHAR
STARTCHAR Edieresis
ENCODING 232
SWIDTH 349 0
DWIDTH 5 0
BBX 4 5 1 4
BITMAP
40
80
E0
A0
60
ENDCHAR
STARTCHAR circumflex
ENCODING 246
SWIDTH 349 0
DWIDTH 5 0
BBX 5 2 0 7
BITMAP
60
10
ENDCHAR
STARTCHAR tilde
ENCODING 247
SWIDTH 349 0
DWIDTH 5 0
BBX 5 2 0 7
BITMAP
60
B0
ENDCHAR
STARTCHAR macron
ENCODING 248
SWIDTH 349 0
DWIDTH 5 0
BBX 5 1 0 7
BITMAP
F0
ENDCHAR
STARTCHAR breve
ENCODING 249
SWIDTH 349 0
DWIDTH 5 0
BBX 5 2 0 7
BITMAP
80
70
ENDCHAR
STARTCHAR dotaccent
ENCODING 250
SWIDTH 349 0
DWIDTH 5 0
BBX 2 2 1 7
BITMAP
C0
C0
ENDCHAR
STARTCHAR ring
ENCODING 251
SWIDTH 349 0
DWIDTH 5 0
BBX 3 3 1 7
BITMAP
E0
A0
E0
ENDCHAR
STARTCHAR cedilla
ENCODING 252
SWIDTH 349 0
DWIDTH 5 0
BBX 3 3 0 -3
BITMAP
60
20
60
ENDCHAR
STARTCHAR hungarumlaut
ENCODING 253
SWIDTH 349 0
DWIDTH 5 0
BBX 5 1 0 8
BITMAP
50
ENDCHAR
STARTCHAR ogonek
ENCODING 254
SWIDTH 349 0
DWIDTH 5 0
BBX 4 4 1 -3
BITMAP
80
80
80
E0
ENDCHAR
STARTCHAR caron
ENCODING 255
SWIDTH 349 0
DWIDTH 5 0
BBX 5 2 0 7
BITMAP
50
60
ENDCHAR
ENDFONT
